<svg width="84" height="80" viewBox="0 0 84 80" fill="none" xmlns="http://www.w3.org/2000/svg">
<path d="M25.1315 75.0687L24.7688 74.9111L24.3756 74.9528L6.31863 76.8671V58.6667V58.2801L6.13179 57.9417C3.17349 52.5834 1.5 46.4796 1.5 40C1.5 18.7978 19.4708 1.5 41.7778 1.5C64.0847 1.5 82.0556 18.7978 82.0556 40C82.0556 61.2022 64.0847 78.5 41.7778 78.5C35.8373 78.5 30.2021 77.2715 25.1315 75.0687Z" fill="white" stroke="#43E155" stroke-width="3"/>
<path d="M40.752 31.3133C40.5239 29.1288 35.3905 19.7359 30.8275 20.0635C26.2645 20.3912 22.7282 26.8343 22.386 29.4565C22.0438 32.0787 21.9297 40.4878 32.4245 49.7715C42.9194 59.0553 49.6926 59.8332 54.555 59.0553C59.4175 58.2774 66.3048 54.2496 63.2247 49.7715C60.1447 45.2935 54.555 40.597 51.2469 42.0169C47.9387 43.4367 46.6839 47.3687 46.6839 47.3687C40.5561 43.8612 38.2041 41.363 35.3905 36.2282C35.3905 36.2282 40.9801 33.4977 40.752 31.3133Z" fill="#43E155"/>
</svg>
