<svg width="101" height="101" viewBox="0 0 101 101" fill="none" xmlns="http://www.w3.org/2000/svg">
<path d="M30.9707 92.32L30.0763 91.9142L29.1002 92.0222L9.47316 94.1954V73.3531V72.4664L9.05878 71.6825C5.64222 65.2191 3.70618 57.8508 3.70618 50.0198C3.70618 24.3798 24.4914 3.59458 50.1314 3.59458C75.7713 3.59458 96.5566 24.3798 96.5566 50.0198C96.5566 75.6597 75.7713 96.445 50.1314 96.445C43.2921 96.445 36.8075 94.9684 30.9707 92.32Z" fill="white" stroke="#43E155" stroke-width="7.1496"/>
<path d="M51.0585 39.7682C50.8039 37.3304 45.0752 26.8482 39.983 27.2138C34.8909 27.5795 30.9444 34.7698 30.5626 37.6961C30.1807 40.6224 30.0533 50.0066 41.7653 60.367C53.4772 70.7274 61.0358 71.5954 66.4622 70.7274C71.8886 69.8593 79.5745 65.3643 76.1373 60.367C72.7001 55.3696 66.4622 50.1285 62.7704 51.713C59.0786 53.2976 57.6783 57.6855 57.6783 57.6855C50.8399 53.7713 48.2151 50.9834 45.0752 45.253C45.0752 45.253 51.3131 42.2059 51.0585 39.7682Z" fill="#43E155"/>
</svg>
