<svg width="84" height="80" viewBox="0 0 84 80" fill="none" xmlns="http://www.w3.org/2000/svg">
<path d="M82.0556 40C82.0556 61.2022 64.0847 78.5 41.7778 78.5C19.4708 78.5 1.5 61.2022 1.5 40C1.5 18.7978 19.4708 1.5 41.7778 1.5C64.0847 1.5 82.0556 18.7978 82.0556 40Z" fill="white" stroke="#41B1F1" stroke-width="3"/>
<path d="M60.677 22.2448C58.0794 19.6689 12.3636 38.2121 14.9611 40.7883C17.5585 43.3644 22.7533 46.4551 25.351 46.4551C27.9487 46.4551 47.1701 30.4871 48.7286 32.0324C50.287 33.5777 32.1044 45.9402 34.7021 48.516C37.2998 51.0917 48.9773 59.333 52.8845 59.3333C56.7918 59.3336 63.2746 24.8208 60.677 22.2448Z" fill="#41B1F1"/>
</svg>
