<svg width="46" height="46" viewBox="0 0 46 46" fill="none" xmlns="http://www.w3.org/2000/svg">
<path d="M14.5091 42.0549L14.1066 41.8722L13.6673 41.9209L4.83518 42.8988V33.5198V33.1208L4.64871 32.768C3.11126 29.8595 2.24004 26.5437 2.24004 23.0198C2.24004 11.4818 11.5934 2.12844 23.1314 2.12844C34.6693 2.12844 44.0227 11.4818 44.0227 23.0198C44.0227 34.5577 34.6693 43.9111 23.1314 43.9111C20.0537 43.9111 17.1356 43.2466 14.5091 42.0549Z" fill="white" stroke="#43E155" stroke-width="3.21732"/>
<path d="M23.5486 18.4065C23.434 17.3096 20.8561 12.5926 18.5646 12.7571C16.2732 12.9216 14.4973 16.1573 14.3254 17.4741C14.1536 18.7909 14.0963 23.0139 19.3666 27.676C24.637 32.3382 28.0384 32.7288 30.4803 32.3382C32.9221 31.9475 36.3808 29.9248 34.834 27.676C33.2873 25.4272 30.4803 23.0687 28.8189 23.7817C27.1576 24.4948 26.5275 26.4693 26.5275 26.4693C23.4502 24.708 22.2691 23.4534 20.8561 20.8747C20.8561 20.8747 23.6631 19.5035 23.5486 18.4065Z" fill="#43E155"/>
</svg>
