<svg width="450" height="90" viewBox="0 0 450 90" fill="none" xmlns="http://www.w3.org/2000/svg">
<path d="M228.899 0.288154C194.717 -2.11683 138.696 10.977 113.602 23.0019C135.983 16.3214 189.156 2.82675 226.865 4.96451C274.001 7.63671 318.764 41.17 328.937 42.0413C339.111 42.9127 366.918 45.0476 396.081 49.7239C425.245 54.4003 443.218 68.7634 450 78.4501C441.522 61.0808 424.906 52.3961 397.777 46.0496C357.423 37.365 340.806 42.3754 318.764 32.6886C296.722 23.0019 271.627 3.29438 228.899 0.288154Z" fill="#FDFDFD"/>
<path d="M421.343 67.3552C406.422 61.6768 389.128 67.5779 380.311 71.3635C380.311 71.3635 404.727 66.6872 419.309 71.3635C433.89 76.0399 446.098 89.0669 446.098 89.0669C446.098 89.0669 444.064 76.0399 421.343 67.3552Z" fill="#FDFDFD"/>
<path d="M162.095 31.082C108.855 28.7438 1.8989 24.1343 -0.00012207 24.4015L206.18 39.7667L162.095 31.082Z" fill="#FDFDFD"/>
<path d="M241.447 44.443C177.92 41.9935 49.9849 37.0945 46.4581 37.0945C128.184 43.441 292.178 56.1339 294.349 56.1339C296.519 56.1339 259.985 48.34 241.447 44.443Z" fill="#FDFDFD"/>
<path d="M315.034 59.1402L120.724 52.4597L368.275 70.497L315.034 59.1402Z" fill="#FDFDFD"/>
</svg>
