<svg width="241" height="79" viewBox="0 0 241 79" fill="none" xmlns="http://www.w3.org/2000/svg">
<path d="M46.808 48.424H51.368L56.984 64H53.192L51.8 59.896H46.112L44.744 64H41.048L46.808 48.424ZM50.984 57.4L49.016 51.544H48.92L46.952 57.4H50.984ZM62.0713 48.424H68.3833C69.8713 48.424 71.0153 48.536 71.8153 48.76C72.6313 48.968 73.2073 49.312 73.5433 49.792C73.8793 50.256 74.0473 50.912 74.0473 51.76V53.68C74.0473 54.112 73.8713 54.52 73.5193 54.904C73.1833 55.288 72.7833 55.552 72.3193 55.696V55.816C72.9273 55.88 73.4793 56.144 73.9753 56.608C74.4873 57.056 74.7433 57.56 74.7433 58.12V60.52C74.7433 61.784 74.2393 62.68 73.2313 63.208C72.2233 63.736 70.6633 64 68.5513 64H62.0713V48.424ZM68.3833 54.76C68.9753 54.76 69.4153 54.712 69.7033 54.616C69.9913 54.52 70.1833 54.368 70.2793 54.16C70.3913 53.936 70.4473 53.616 70.4473 53.2V52.432C70.4473 52.064 70.3993 51.792 70.3033 51.616C70.2073 51.424 70.0073 51.288 69.7033 51.208C69.4153 51.128 68.9513 51.088 68.3113 51.088H65.8153V54.76H68.3833ZM68.4793 61.336C69.3913 61.336 70.0393 61.232 70.4233 61.024C70.8073 60.816 70.9993 60.48 70.9993 60.016V58.768C70.9993 58.192 70.8473 57.784 70.5433 57.544C70.2553 57.304 69.7353 57.184 68.9833 57.184H65.8153V61.336H68.4793ZM84.2656 51.088H79.4656V48.424H92.7856V51.088H88.0096V64H84.2656V51.088ZM105.331 64.24C104.467 64.24 103.667 64.184 102.931 64.072C102.211 63.96 101.459 63.768 100.675 63.496C99.8271 63.208 99.1631 62.744 98.6831 62.104C98.2031 61.448 97.9631 60.656 97.9631 59.728V52.912C97.9631 52.144 98.1311 51.456 98.4671 50.848C98.8191 50.24 99.2671 49.76 99.8111 49.408C100.291 49.104 100.883 48.848 101.587 48.64C102.291 48.432 102.947 48.304 103.555 48.256C104.115 48.208 104.707 48.184 105.331 48.184C106.067 48.184 106.707 48.216 107.251 48.28C107.795 48.328 108.403 48.44 109.075 48.616C109.843 48.84 110.475 49.112 110.971 49.432C111.467 49.752 111.883 50.2 112.219 50.776C112.571 51.368 112.747 52.08 112.747 52.912V59.728C112.747 60.592 112.515 61.336 112.051 61.96C111.603 62.584 110.979 63.056 110.179 63.376C108.739 63.952 107.123 64.24 105.331 64.24ZM105.379 61.576C105.907 61.576 106.347 61.56 106.699 61.528C107.067 61.48 107.443 61.4 107.827 61.288C108.211 61.176 108.499 60.992 108.691 60.736C108.899 60.464 109.003 60.128 109.003 59.728V52.888C109.003 52.152 108.707 51.632 108.115 51.328C107.523 51.008 106.603 50.848 105.355 50.848C104.107 50.848 103.187 51 102.595 51.304C102.003 51.608 101.707 52.136 101.707 52.888V59.728C101.707 60.128 101.811 60.464 102.019 60.736C102.227 60.992 102.531 61.176 102.931 61.288C103.315 61.4 103.683 61.48 104.035 61.528C104.403 61.56 104.851 61.576 105.379 61.576ZM126.008 64.24C125.304 64.24 124.672 64.208 124.112 64.144C123.568 64.08 122.968 63.96 122.312 63.784C121.576 63.592 120.968 63.344 120.488 63.04C120.008 62.72 119.608 62.28 119.288 61.72C118.952 61.16 118.784 60.496 118.784 59.728V52.888C118.784 49.752 121.192 48.184 126.008 48.184C127.24 48.184 128.888 48.36 130.952 48.712V51.52C129.096 51.072 127.464 50.848 126.056 50.848C125.464 50.848 125 50.864 124.664 50.896C124.344 50.928 124.008 51.008 123.656 51.136C122.904 51.392 122.528 51.96 122.528 52.84V59.464C122.528 60.872 123.816 61.576 126.392 61.576C127.496 61.576 129.048 61.344 131.048 60.88V63.712C129.336 64.064 127.656 64.24 126.008 64.24ZM136.8 48.424H148.68V51.088H140.544V54.664H147.888V57.328H140.544V61.336H148.92V64H136.8V48.424ZM154.809 48.424H161.049C162.569 48.424 163.769 48.528 164.649 48.736C165.545 48.944 166.193 49.312 166.593 49.84C167.009 50.352 167.217 51.072 167.217 52V54.952C167.217 55.976 166.993 56.776 166.545 57.352C166.113 57.928 165.417 58.336 164.457 58.576C163.513 58.816 162.233 58.936 160.617 58.936H158.553V64H154.809V48.424ZM160.929 56.368C161.905 56.368 162.593 56.256 162.993 56.032C163.393 55.792 163.593 55.392 163.593 54.832V52.336C163.593 51.824 163.401 51.488 163.017 51.328C162.649 51.168 161.937 51.088 160.881 51.088H158.553V56.368H160.929ZM173.216 48.424H179.528C181.016 48.424 182.16 48.536 182.96 48.76C183.776 48.968 184.352 49.312 184.688 49.792C185.024 50.256 185.192 50.912 185.192 51.76V53.68C185.192 54.112 185.016 54.52 184.664 54.904C184.328 55.288 183.928 55.552 183.464 55.696V55.816C184.072 55.88 184.624 56.144 185.12 56.608C185.632 57.056 185.888 57.56 185.888 58.12V60.52C185.888 61.784 185.384 62.68 184.376 63.208C183.368 63.736 181.808 64 179.696 64H173.216V48.424ZM179.528 54.76C180.12 54.76 180.56 54.712 180.848 54.616C181.136 54.52 181.328 54.368 181.424 54.16C181.536 53.936 181.592 53.616 181.592 53.2V52.432C181.592 52.064 181.544 51.792 181.448 51.616C181.352 51.424 181.152 51.288 180.848 51.208C180.56 51.128 180.096 51.088 179.456 51.088H176.96V54.76H179.528ZM179.624 61.336C180.536 61.336 181.184 61.232 181.568 61.024C181.952 60.816 182.144 60.48 182.144 60.016V58.768C182.144 58.192 181.992 57.784 181.688 57.544C181.4 57.304 180.88 57.184 180.128 57.184H176.96V61.336H179.624ZM191.81 48.424H195.554V59.08L202.274 48.424H206.018V64H202.274V53.176L195.554 64H191.81V48.424ZM219.636 64.24C218.932 64.24 218.3 64.208 217.74 64.144C217.196 64.08 216.596 63.96 215.94 63.784C215.204 63.592 214.596 63.344 214.116 63.04C213.636 62.72 213.236 62.28 212.916 61.72C212.58 61.16 212.412 60.496 212.412 59.728V52.888C212.412 49.752 214.82 48.184 219.636 48.184C220.868 48.184 222.516 48.36 224.58 48.712V51.52C222.724 51.072 221.092 50.848 219.684 50.848C219.092 50.848 218.628 50.864 218.292 50.896C217.972 50.928 217.636 51.008 217.284 51.136C216.532 51.392 216.156 51.96 216.156 52.84V59.464C216.156 60.872 217.444 61.576 220.02 61.576C221.124 61.576 222.676 61.344 224.676 60.88V63.712C222.964 64.064 221.284 64.24 219.636 64.24Z" fill="#FDFDFD"/>
<path d="M122.484 0.154191C104.193 -1.13272 74.2163 5.87379 60.7883 12.3083C72.7646 8.73358 101.217 1.51259 121.396 2.65651C146.618 4.08641 170.571 22.0301 176.015 22.4964C181.458 22.9626 196.338 24.105 211.943 26.6073C227.549 29.1096 237.166 36.7953 240.795 41.9787C236.259 32.6844 227.367 28.0372 212.851 24.6412C191.257 19.994 182.366 22.6751 170.571 17.4917C158.776 12.3083 145.348 1.76283 122.484 0.154191Z" fill="#FDFDFD"/>
<path d="M225.461 36.0419C217.477 33.0033 208.223 36.161 203.505 38.1867C203.505 38.1867 216.57 35.6844 224.372 38.1867C232.175 40.689 238.708 47.6598 238.708 47.6598C238.708 47.6598 237.619 40.689 225.461 36.0419Z" fill="#FDFDFD"/>
<path d="M86.7373 16.632C58.2483 15.3808 1.01617 12.9142 0 13.0572L110.327 21.2791L86.7373 16.632Z" fill="#FDFDFD"/>
<path d="M129.199 23.7815C95.2054 22.4707 26.747 19.8492 24.8599 19.8492C68.5914 23.2453 156.345 30.0373 157.506 30.0373C158.668 30.0373 139.118 25.8667 129.199 23.7815Z" fill="#FDFDFD"/>
<path d="M168.575 31.6459L64.5993 28.0712L197.064 37.723L168.575 31.6459Z" fill="#FDFDFD"/>
<path fill-rule="evenodd" clip-rule="evenodd" d="M46.5355 35.6836C46.5815 34.7166 47.1815 34 47.883 34H49.1099C49.7964 34 50.3903 34.6865 50.45 35.6314C50.5041 36.489 50.5181 37.3641 50.4732 38.2438C52.4111 38.4644 54.2574 38.9865 55.9643 39.7619C55.9836 39.7134 56.005 39.6651 56.0286 39.617C56.4047 38.8492 56.8303 38.0884 57.318 37.359C57.79 36.653 58.5937 36.427 59.1694 36.7594L60.3051 37.4151C60.8991 37.758 61.094 38.6044 60.693 39.3841C60.3287 40.0925 59.9085 40.8135 59.4427 41.5323C59.3982 41.6011 59.3506 41.6659 59.3004 41.7265C59.8359 42.1233 60.3491 42.5486 60.8378 43H55.7362C53.5493 41.8045 51.04 41.125 48.3721 41.125C39.8807 41.125 32.9971 48.0086 32.9971 56.5C32.9971 64.9914 39.8807 71.875 48.3721 71.875C51.04 71.875 53.5493 71.1955 55.7362 70H60.8378C60.3389 70.4609 59.8144 70.8945 59.2666 71.2984C59.3089 71.3515 59.3492 71.4077 59.3874 71.4669C59.8237 72.1452 60.2431 72.8786 60.6381 73.6506C61.0516 74.4587 60.8678 75.3405 60.2604 75.6912L59.1978 76.3047C58.6033 76.6479 57.7671 76.3875 57.2726 75.6502C56.7904 74.9314 56.3389 74.173 55.9456 73.3765C55.928 73.3407 55.9115 73.3048 55.8963 73.2688C54.3505 73.9635 52.6912 74.4507 50.9539 74.695C51.0086 75.5959 51.0186 76.5157 50.9623 77.4395C50.9065 78.3546 50.3234 79 49.6587 79H48.3473C47.6614 79 47.0695 78.3137 47.0269 77.3679C46.9901 76.553 46.9913 75.7005 47.029 74.8267C44.9194 74.6743 42.9084 74.1657 41.056 73.3608C41.0446 73.3853 41.0327 73.4097 41.0201 73.4341C40.6512 74.1512 40.2257 74.8812 39.7543 75.6091C39.2609 76.371 38.4011 76.6504 37.7888 76.2968L36.7177 75.6784C36.1184 75.3324 35.9216 74.4756 36.3125 73.6785C36.6925 72.9033 37.1222 72.1351 37.6141 71.3982C36.0799 70.2884 34.7238 68.9474 33.597 67.4262C33.5872 67.4328 33.5773 67.4393 33.5672 67.4458C32.8894 67.8828 32.1559 68.3022 31.3835 68.6964C30.5749 69.1091 29.687 68.9149 29.3293 68.2952L28.7035 67.2113C28.3533 66.6048 28.6078 65.7582 29.3445 65.2627C30.0493 64.7885 30.7927 64.3447 31.5734 63.9576C30.8136 62.2485 30.3069 60.4019 30.101 58.4655C29.2654 58.5097 28.4147 58.5143 27.5605 58.4623C26.6454 58.4065 26 57.8234 26 57.1587V55.8473C26 55.1614 26.6863 54.5695 27.6321 54.5269C28.4247 54.4911 29.253 54.4913 30.1019 54.526C30.3098 52.5789 30.8219 50.7227 31.5897 49.0059L31.5783 49.0004C30.8011 48.6193 30.0309 48.1884 29.2923 47.6948C28.5774 47.2171 28.3473 46.4055 28.6824 45.8251L29.3435 44.68C29.6893 44.0811 30.5449 43.8861 31.3343 44.2922C32.0514 44.6611 32.7814 45.0866 33.5093 45.558C33.5318 45.5726 33.5539 45.5875 33.5756 45.6027C34.7061 44.0704 36.0688 42.7199 37.612 41.6034C37.6005 41.5873 37.5892 41.571 37.578 41.5544C37.0949 40.8361 36.6433 40.0778 36.2509 39.2808C35.8711 38.5094 36.0828 37.6885 36.669 37.3501L37.8256 36.6823C38.4305 36.333 39.2743 36.5889 39.7552 37.3351C40.1922 38.013 40.6116 38.7464 41.0058 39.5188C41.0258 39.558 41.0444 39.5973 41.0615 39.6368C42.763 38.8981 44.5981 38.4095 46.5205 38.2171C46.4886 37.4034 46.4941 36.5535 46.5355 35.6836Z" fill="white"/>
</svg>
