<svg width="47" height="46" viewBox="0 0 47 46" fill="none" xmlns="http://www.w3.org/2000/svg">
<path d="M14.7841 42.5895L14.4089 42.4192L13.9993 42.4645L4.81052 43.482V33.7332V33.3612L4.63665 33.0322C3.05431 30.0388 2.15771 26.6262 2.15771 22.9999C2.15771 11.1258 11.7836 1.49988 23.6577 1.49988C35.5318 1.49988 45.1577 11.1258 45.1577 22.9999C45.1577 34.874 35.5318 44.4999 23.6577 44.4999C20.4907 44.4999 17.4874 43.8161 14.7841 42.5895Z" fill="white" stroke="#43E155" stroke-width="3"/>
<path d="M23.5507 18.1028C23.4225 16.8194 20.5388 11.3011 17.9754 11.4936C15.4121 11.6861 13.4255 15.4714 13.2332 17.0119C13.041 18.5525 12.9769 23.4928 18.8726 28.947C24.7683 34.4012 28.5732 34.8582 31.3048 34.4012C34.0364 33.9442 37.9054 31.5779 36.1751 28.947C34.4449 26.3162 31.3048 23.557 29.4464 24.3911C27.5879 25.2253 26.883 27.5353 26.883 27.5353C23.4406 25.4747 22.1194 24.007 20.5388 20.9903C20.5388 20.9903 23.6788 19.3861 23.5507 18.1028Z" fill="#43E155"/>
</svg>
